/* XPM */
static char * unknown[] = {
"7 8 2 1",
"  s None c None",
". c #646464",
"..   ..",
".     .",
".     .",
".     .",
". . . .",
".     .",
".     .",
"..   .."};