<?xml version="1.0" encoding="UTF-8" standalone="no"?>
<!-- Created with Inkscape (http://www.inkscape.org/) -->
<svg
   xmlns:svg="http://www.w3.org/2000/svg"
   xmlns="http://www.w3.org/2000/svg"
   xmlns:xlink="http://www.w3.org/1999/xlink"
   version="1.0"
   width="119.99999"
   height="30"
   id="svg2">
  <defs
     id="defs4">
    <radialGradient
       cx="29.784286"
       cy="-3.6662683"
       r="16.354469"
       fx="29.784286"
       fy="-3.6662683"
       id="radialGradient4182"
       xlink:href="#linearGradient4166"
       gradientUnits="userSpaceOnUse"
       gradientTransform="matrix(0.3345332,1.1409197,-1.0489854,0.2821604,15.974594,-36.436153)" />
    <linearGradient
       x1="210"
       y1="304.29077"
       x2="210"
       y2="210.21933"
       id="linearGradient3274"
       xlink:href="#linearGradient3266"
       gradientUnits="userSpaceOnUse"
       gradientTransform="matrix(0.3681199,0,0,0.2554185,-17.305178,-55.644478)" />
    <clipPath
       id="clipPath2455">
      <path
         d="M 426.3344,247.4731 C 426.3344,261.595 437.7813,273.0492 451.9009,273.0492 C 466.0353,273.0492 477.4825,261.595 477.4825,247.4731 C 477.4825,233.3511 466.0353,221.8972 451.9009,221.8972 C 437.7813,221.8972 426.3344,233.3511 426.3344,247.4731"
         id="path2457" />
    </clipPath>
    <linearGradient
       id="linearGradient3266">
      <stop
         style="stop-color:#ffc800;stop-opacity:1"
         offset="0"
         id="stop3268" />
      <stop
         style="stop-color:#ffffff;stop-opacity:1"
         offset="1"
         id="stop3185" />
    </linearGradient>
    <linearGradient
       id="linearGradient4166">
      <stop
         style="stop-color:#ffffff;stop-opacity:1"
         offset="0"
         id="stop4168" />
      <stop
         style="stop-color:#447fbb;stop-opacity:1"
         offset="1"
         id="stop4170" />
    </linearGradient>
  </defs>
  <g
     transform="translate(-248.01665,-510.34118)"
     id="layer1">
    <g
       transform="translate(248.01665,510.29112)"
       id="g2199">
      <rect
         width="117.79836"
         height="20.798367"
         ry="6.203021"
         x="1.1008166"
         y="1.1508746"
         style="fill:url(#linearGradient3274);fill-opacity:1;fill-rule:evenodd;stroke:#ffc800;stroke-width:2.20163321;stroke-linecap:butt;stroke-linejoin:miter;stroke-miterlimit:4;stroke-dasharray:none;stroke-opacity:1"
         id="rect2492" />
      <g
         transform="matrix(0.581913,0,0,-0.581913,-303.72088,201.89683)"
         id="g2449">
        <path
           d="M 51.559059,0.53009516 C 51.559059,9.1811852 44.236914,16.194279 35.20459,16.194279 C 26.172266,16.194279 18.850121,9.1811852 18.850121,0.53009516 C 18.850121,-8.1209949 26.172266,-15.134089 35.20459,-15.134089 C 44.236914,-15.134089 51.559059,-8.1209949 51.559059,0.53009516 L 51.559059,0.53009516 z "
           transform="matrix(1.5637393,0,0,-1.6326498,547.07611,322.09655)"
           style="fill:url(#radialGradient4182);fill-opacity:1;stroke:none;stroke-width:0.25400001;stroke-linejoin:miter;stroke-miterlimit:10;stroke-dasharray:none;stroke-opacity:1"
           id="path3639" />
        <g
           transform="translate(153.15659,127.4408)"
           id="g2451">
          <g
             clip-path="url(#clipPath2455)"
             id="g2453">
            <g
               transform="matrix(51.26426,0,0,51.16652,426.2762,221.8392)"
               id="g2459" />
          </g>
        </g>
        <path
           d="M 594.5174,345.63109 L 594.5174,296.73859 M 600.1637,346.69009 L 591.5535,297.85799 M 606.0828,346.44179 L 588.9048,299.24549 M 611.9088,344.78979 L 586.5413,300.85079 M 617.2481,341.75669 L 584.4337,302.64769 M 621.7396,337.50929 L 582.558,304.63159 M 625.084,332.31509 L 580.9012,306.80489 M 627.0691,326.51539 L 579.4626,309.18719 M 627.6176,320.50279 L 578.2545,311.79869 M 626.7876,314.66709 L 577.3168,314.66659 M 624.7223,309.34109 L 576.6997,317.80759 M 621.6739,304.78329 L 576.4786,321.23159 M 617.9395,301.14419 L 576.7504,324.92369 M 613.8177,298.47279 L 577.6391,328.82839 M 609.566,296.73289 L 579.2752,332.82929 M 605.3945,295.82749 L 581.7629,336.75549 M 601.4507,295.61769 L 585.1563,340.38329 M 597.8164,295.96129 L 589.4431,343.43929 M 591.8928,344.66019 L 596.1232,296.30229 M 597.2854,346.31399 L 592.9946,297.26239 M 603.1098,346.73549 L 590.1915,298.52269 M 609.0322,345.79459 L 587.6887,300.02219 M 614.6627,343.43819 L 585.4567,301.72639 M 619.6196,339.76989 L 583.4682,303.61629 M 623.5708,335.01019 L 581.7034,305.69289 M 626.2552,329.46679 L 580.1534,307.96859 M 627.5209,323.51039 L 578.8285,310.46279 M 627.367,317.54089 L 577.7505,313.19909 M 625.8964,311.92199 L 576.9641,316.20179 M 623.3044,306.95459 L 576.535,319.48429 M 619.8727,302.84319 L 576.5449,323.04629 M 615.9102,299.68799 L 577.109,326.85499 M 611.6931,297.49139 L 578.3579,330.82489 M 607.4593,296.18489 L 580.4088,334.81439 M 603.3887,295.64439 L 583.3447,338.62189 M 599.5928,295.72799 L 587.1918,342.00189"
           style="fill:none;stroke:#c7d7ee;stroke-width:0.43649137;stroke-linecap:butt;stroke-linejoin:miter;stroke-miterlimit:10;stroke-dasharray:none;stroke-opacity:1"
           id="path2463" />
        <path
           d="M 593.48001,330.85919 C 591.57231,330.85919 589.85961,328.44459 589.04211,325.83759 C 589.11971,325.48609 589.35361,325.21369 589.78161,325.33019 C 590.59801,326.96519 591.26081,328.28899 592.03971,328.28899 C 592.77901,328.28899 593.44091,326.77079 593.51881,322.44959 C 593.55681,319.14079 593.28411,315.56059 592.74021,313.57629 C 592.00061,311.00589 590.28791,308.55449 589.31481,307.73699 C 588.38051,306.95859 587.67951,306.64709 587.17351,306.64709 C 586.55071,306.64709 586.20121,307.15299 586.08331,307.34749 C 585.81201,307.73699 585.42281,307.97059 585.03361,307.97059 C 584.17611,307.97059 583.47631,307.27009 583.47631,306.29579 C 583.47631,305.32359 584.25381,304.50599 585.50081,304.50599 C 586.74521,304.50599 588.69171,305.12879 591.57231,308.43689 C 594.68671,311.98019 596.04931,314.54829 597.99451,317.77959 C 601.45901,323.65629 602.54921,328.67849 602.51001,329.65159 C 602.51001,330.07969 602.39331,330.27409 602.15971,330.42999 C 601.84841,330.62479 601.34251,330.78039 601.07001,330.78039 C 600.79741,330.78039 600.21341,330.70239 600.13551,329.57229 C 600.09661,328.56059 599.51271,324.62979 598.69551,322.37169 C 597.83861,319.99819 596.71091,317.58449 595.42601,315.67849 L 595.26951,315.67849 C 595.81461,318.90829 595.89231,321.74889 595.85461,324.24029 C 595.77551,326.96519 595.46401,330.85919 593.48001,330.85919"
           style="fill:#000000;fill-opacity:1;fill-rule:evenodd;stroke:none"
           id="path2465" />
        <path
           d="M 602.26291,339.77189 C 603.57051,339.61599 603.94441,338.56519 604.53681,336.96899 C 606.56081,331.55789 608.49141,326.14689 610.48421,320.73689 C 610.88931,319.60899 612.10361,316.10539 612.63261,314.47069 C 612.78821,314.39269 612.94411,314.35359 613.09971,314.35359 C 613.25531,314.35359 613.37981,314.39269 613.47301,314.47069 C 614.37671,317.70159 616.24451,322.68459 617.36501,325.52489 C 618.33191,322.80109 620.13731,317.93519 621.13371,314.47069 C 621.25781,314.39269 621.41341,314.35359 621.56941,314.35359 C 621.72471,314.35359 621.85001,314.39269 621.94351,314.47069 C 623.22031,318.63589 624.49731,322.44959 625.83551,326.42149 L 628.10921,332.99819 C 629.97661,338.40929 630.25781,339.57689 631.81461,339.77189 L 632.40591,339.84949 C 632.62481,340.16109 632.59331,340.66619 632.34381,340.78379 C 631.53401,340.70619 630.63091,340.66619 629.44741,340.66619 C 628.48251,340.66619 627.64201,340.70619 626.45831,340.78379 C 626.20911,340.62819 626.17851,340.19879 626.42681,339.84949 L 627.33021,339.77189 C 627.98501,339.73189 628.35721,339.42149 628.35721,338.87639 C 628.35721,338.40929 627.82801,336.73539 627.42401,335.33419 C 627.20551,334.63319 625.52401,329.45689 624.93181,327.58829 C 623.99861,324.82539 623.09581,322.09929 622.13001,319.37549 C 621.10311,322.33429 620.01311,325.25249 618.95381,328.25019 C 618.79911,328.71729 618.73581,329.02739 618.73581,329.18529 C 618.73581,329.33979 618.86111,329.72929 619.01561,330.11959 C 619.48391,331.47999 620.79041,334.86679 621.44491,336.30599 C 622.13001,337.90329 622.69051,339.65399 623.99861,339.77189 L 624.90121,339.84949 C 625.08831,340.16109 625.05681,340.66619 624.83911,340.78379 C 624.12251,340.70619 622.87701,340.66619 621.85001,340.66619 C 620.69801,340.66619 619.76281,340.70619 618.92321,340.78379 C 618.70521,340.66619 618.64231,340.23789 618.86111,339.84949 L 619.79431,339.77189 C 620.79041,339.69389 620.94631,339.26449 619.82581,335.95669 C 619.14091,333.85459 618.57991,332.37659 617.98891,330.85919 C 617.11641,333.27059 616.21301,335.72319 615.59111,337.63089 C 614.96831,339.38239 615.03041,339.65399 616.24451,339.77189 L 617.05461,339.84949 C 617.24061,340.16109 617.21021,340.66619 616.99251,340.78379 C 616.27591,340.70619 615.12391,340.66619 613.56691,340.66619 C 612.32131,340.66619 611.13731,340.70619 610.23471,340.78379 C 609.98531,340.62819 609.95501,340.16109 610.17271,339.84949 L 610.91961,339.77189 C 611.97801,339.65399 612.44631,338.83759 612.91351,337.63089 C 614.09611,334.51639 615.24921,331.40339 616.33801,328.28899 C 616.49391,327.82069 616.58751,327.47059 616.58751,327.27679 C 616.58751,327.08229 616.33801,326.42149 616.08881,325.68169 C 615.24921,323.50099 614.43911,321.32199 613.69101,319.37549 C 611.88561,324.16259 610.04851,329.02739 608.30411,333.89339 C 607.33941,336.65739 606.68491,338.64169 606.68491,339.10999 C 606.68491,339.46029 607.05851,339.69389 607.71301,339.77189 L 608.42821,339.84949 C 608.61561,340.12219 608.64621,340.66619 608.36611,340.78379 C 607.27741,340.70619 605.68851,340.66619 604.81741,340.66619 C 603.85171,340.66619 602.45021,340.70619 601.60861,340.78379 C 601.36001,340.62819 601.32971,340.08309 601.51591,339.84949"
           style="fill:#000000;fill-opacity:1;fill-rule:evenodd;stroke:none"
           id="path2467" />
        <path
           d="M 635.61051,330.85919 C 631.93651,330.85919 628.97801,327.35469 628.97801,322.44959 C 628.97801,317.58449 631.78001,314.43159 635.36251,314.43159 C 639.25411,314.43159 641.93201,317.93519 641.93201,322.80109 C 641.93201,327.58829 639.09821,330.85919 635.61051,330.85919 z M 639.25411,322.17719 C 639.25411,319.18069 638.41341,315.60059 635.67281,315.60059 C 632.93321,315.60059 631.65591,319.41319 631.65591,322.95589 C 631.65591,327.23789 633.18121,329.69019 635.23721,329.69019 C 638.19571,329.69019 639.25411,325.48609 639.25411,322.17719"
           style="fill:#000000;fill-opacity:1;fill-rule:evenodd;stroke:none"
           id="path2469" />
        <path
           d="M 646.49921,319.35019 C 646.49921,316.55049 646.46751,316.20009 645.31521,315.96769 L 644.72331,315.84999 C 644.50621,315.65219 644.56831,314.98059 644.78511,314.86209 C 645.59641,314.93979 646.52951,314.97469 647.65091,314.97469 C 648.74001,314.97469 649.64371,314.93979 651.10721,314.86209 C 651.32631,314.98059 651.38811,315.65219 651.16931,315.84999 L 650.04881,315.96769 C 648.86531,316.08439 648.80291,316.55049 648.80291,319.35019 L 648.80291,324.63489 C 648.80291,325.95639 648.89681,327.08429 649.20801,327.62829 C 649.45631,328.05519 649.82991,328.40549 650.32881,328.40549 C 650.76541,328.40549 651.23171,328.17309 651.69851,327.78419 C 651.91741,327.62629 652.07181,327.51119 652.38421,327.51119 C 652.88201,327.51119 653.72271,328.01659 653.72271,329.30009 C 653.72271,330.23409 653.10081,330.85919 652.32131,330.85919 C 651.16931,330.85919 649.98701,329.65159 648.89681,328.52339 C 648.83471,328.56059 648.80291,328.67849 648.80291,328.87289 L 648.80291,331.12989 C 648.80291,331.28639 648.70941,331.36429 648.55381,331.40339 C 647.77541,330.81809 646.12561,329.80609 645.40901,329.49489 C 645.25311,329.37889 645.25311,328.95089 645.37751,328.79389 L 645.65821,328.56059 C 646.49921,327.86069 646.49921,327.66619 646.49921,326.14999"
           style="fill:#000000;fill-opacity:1;fill-rule:evenodd;stroke:none"
           id="path2471" />
        <path
           d="M 656.76461,319.34489 C 656.76461,316.54959 656.73371,316.16209 655.58171,315.96769 L 654.89711,315.84999 C 654.64741,315.65219 654.70981,314.98059 654.92861,314.86209 C 655.86291,314.93979 656.79611,314.97469 657.91631,314.97469 C 659.00771,314.97469 659.91051,314.93979 660.93691,314.86209 C 661.15571,314.98059 661.21811,315.65219 661.00011,315.84999 L 660.25231,315.96769 C 659.13151,316.16209 659.06971,316.54959 659.06971,319.34489 L 659.06971,321.48079 C 659.06971,322.68459 659.10011,322.80109 659.66081,322.80109 C 660.00401,322.80109 660.34591,322.64409 660.62651,322.25829 L 663.95781,317.44279 C 664.36291,316.86089 664.48791,316.58959 664.48791,316.35599 C 664.48791,316.12239 664.17661,316.04559 663.70951,315.96769 L 663.14851,315.84999 C 662.93081,315.69209 662.96111,315.01859 663.21091,314.86209 C 664.11461,314.93979 665.20331,314.97469 666.44921,314.97469 C 667.44531,314.97469 668.50481,314.93979 669.40771,314.86209 C 669.65571,314.98059 669.68861,315.65219 669.46951,315.84999 L 669.03291,315.92879 C 668.47341,316.04559 667.85061,316.27799 667.41491,316.78399 C 666.79221,317.52189 665.70221,319.03449 664.48791,320.74199 C 663.42861,322.21719 662.93081,322.95589 662.40161,323.85139 C 662.21421,324.16149 662.24601,324.35619 662.61931,324.78309 C 663.17941,325.44699 664.23871,326.84869 665.45281,328.05519 C 666.26291,328.87289 666.79221,329.26239 667.41491,329.41779 L 668.41101,329.65159 C 668.59841,329.84609 668.56691,330.50659 668.34811,330.62479 C 666.60481,330.38809 664.76791,330.31009 663.39801,330.31009 L 662.68161,330.31009 C 662.40161,330.19329 662.40161,329.44099 662.68161,329.32219 L 663.42861,329.20429 C 663.95781,329.12749 664.11461,329.01179 664.11461,328.81709 C 664.11461,328.62349 663.89541,328.19629 663.02431,327.03159 L 661.74731,325.32509 C 660.90661,324.23939 660.31411,323.81339 659.62931,323.81339 C 659.10011,323.81339 659.06971,323.89019 659.06971,324.39419 L 659.06971,337.74619 C 659.06971,339.45919 659.13151,341.40549 659.16211,342.57359 C 659.10011,342.72929 658.97621,342.80829 658.85201,342.80829 C 657.73041,342.06739 656.26681,341.48339 655.48841,341.17219 C 655.33371,341.05649 655.33371,340.51029 655.48841,340.39379 L 655.79941,340.15989 C 656.73371,339.45919 656.76461,339.22559 656.76461,336.92989"
           style="fill:#000000;fill-opacity:1;fill-rule:evenodd;stroke:none"
           id="path2473" />
        <path
           d="M 675.25301,330.85919 C 672.88721,330.85919 671.01861,329.26239 671.01861,326.42149 C 671.01861,324.28029 672.29561,322.91709 674.10101,321.63239 C 675.25301,320.81489 676.49881,319.84259 676.49881,318.05079 C 676.49881,316.37699 675.53421,315.56059 674.41251,315.56059 C 672.63861,315.56059 671.64141,317.42919 671.11221,319.57019 C 670.95631,319.80259 670.55121,319.76469 670.39561,319.53019 C 670.33351,318.24639 670.52081,316.34039 670.77001,315.60059 C 671.54871,314.82079 672.63861,314.43159 674.10101,314.43159 C 676.40611,314.43159 678.58631,315.91099 678.58631,318.86829 C 678.58631,321.63239 677.05981,322.95589 675.40891,324.12239 C 674.31981,324.90219 673.01111,325.75849 673.01111,327.35469 C 673.01111,328.75589 673.79061,329.72929 675.00501,329.72929 C 676.28111,329.72929 677.21541,328.60049 677.74471,326.88639 C 677.90031,326.65399 678.36741,326.73189 678.49161,327.00429 C 678.49161,328.05519 678.27391,329.30009 677.99381,330.15649 C 677.71321,330.46769 676.56121,330.85919 675.25301,330.85919"
           style="fill:#000000;fill-opacity:1;fill-rule:evenodd;stroke:none"
           id="path2475" />
      </g>
    </g>
  </g>
</svg>
